<svg version="1.1" xmlns="http://www.w3.org/2000/svg" xmlns:xlink="http://www.w3.org/1999/xlink" width="128px" height="128px" viewBox="0,0,256,256"><g fill="#c29e0c" fill-rule="nonzero" stroke="none" stroke-width="1" stroke-linecap="butt" stroke-linejoin="miter" stroke-miterlimit="10" stroke-dasharray="" stroke-dashoffset="0" font-family="none" font-weight="none" font-size="none" text-anchor="none" style="mix-blend-mode: normal"><g transform="scale(2,2)"><path d="M119,1h-70c-1.7,0 -3,1.3 -3,3v24.8l-37.1,14.4c-1.1,0.4 -1.9,1.6 -1.9,2.8v78c0,1.7 1.3,3 3,3h11c1.7,0 3,-1.3 3,-3v-18c0,-1.7 1.3,-3 3,-3h6c1.7,0 3,1.3 3,3v18c0,1.7 1.3,3 3,3h4c1.7,0 3,-1.3 3,-3v-73.5c0,-1.2 0.7,-2.4 1.8,-2.9c2,-0.9 4.2,0.6 4.2,2.7v76.5v0.1h23c1.7,0 3,-1.3 3,-3v-18c0,-1.7 1.3,-3 3,-3h6c1.7,0 3,1.3 3,3v18c0,1.7 1.3,3 3,3h26c1.7,0 3,-1.3 3,-3v-119.9c0,-1.7 -1.3,-3 -3,-3zM33,86c0,1.7 -1.3,3 -3,3c-1.7,0 -3,-1.3 -3,-3v-4c0,-1.7 1.3,-3 3,-3c1.7,0 3,1.3 3,3zM33,66c0,1.7 -1.3,3 -3,3c-1.7,0 -3,-1.3 -3,-3v-4c0,-1.7 1.3,-3 3,-3c1.7,0 3,1.3 3,3zM70,86c0,1.7 -1.3,3 -3,3c-1.7,0 -3,-1.3 -3,-3v-4c0,-1.7 1.3,-3 3,-3c1.7,0 3,1.3 3,3zM70,66c0,1.7 -1.3,3 -3,3c-1.7,0 -3,-1.3 -3,-3v-4c0,-1.7 1.3,-3 3,-3c1.7,0 3,1.3 3,3zM70,46c0,1.7 -1.3,3 -3,3c-1.7,0 -3,-1.3 -3,-3v-4c0,-1.7 1.3,-3 3,-3c1.7,0 3,1.3 3,3zM70,26c0,1.7 -1.3,3 -3,3c-1.7,0 -3,-1.3 -3,-3v-4c0,-1.7 1.3,-3 3,-3c1.7,0 3,1.3 3,3zM87,86c0,1.7 -1.3,3 -3,3c-1.7,0 -3,-1.3 -3,-3v-4c0,-1.7 1.3,-3 3,-3c1.7,0 3,1.3 3,3zM87,66c0,1.7 -1.3,3 -3,3c-1.7,0 -3,-1.3 -3,-3v-4c0,-1.7 1.3,-3 3,-3c1.7,0 3,1.3 3,3zM87,46c0,1.7 -1.3,3 -3,3c-1.7,0 -3,-1.3 -3,-3v-4c0,-1.7 1.3,-3 3,-3c1.7,0 3,1.3 3,3zM87,26c0,1.7 -1.3,3 -3,3c-1.7,0 -3,-1.3 -3,-3v-4c0,-1.7 1.3,-3 3,-3c1.7,0 3,1.3 3,3zM104,86c0,1.7 -1.3,3 -3,3c-1.7,0 -3,-1.3 -3,-3v-4c0,-1.7 1.3,-3 3,-3c1.7,0 3,1.3 3,3zM104,66c0,1.7 -1.3,3 -3,3c-1.7,0 -3,-1.3 -3,-3v-4c0,-1.7 1.3,-3 3,-3c1.7,0 3,1.3 3,3zM104,46c0,1.7 -1.3,3 -3,3c-1.7,0 -3,-1.3 -3,-3v-4c0,-1.7 1.3,-3 3,-3c1.7,0 3,1.3 3,3zM104,26c0,1.7 -1.3,3 -3,3c-1.7,0 -3,-1.3 -3,-3v-4c0,-1.7 1.3,-3 3,-3c1.7,0 3,1.3 3,3z"></path></g></g></svg>